<svg width="27" height="27" viewBox="0 0 27 27" fill="none" xmlns="http://www.w3.org/2000/svg">
<path fill-rule="evenodd" clip-rule="evenodd" d="M4.86609 5.64543C4.86832 5.64543 4.81254 5.70344 4.74226 5.7726C4.47231 6.03475 3.91343 6.58024 3.9078 7.72143C3.89893 9.31774 4.94864 12.2817 10.0031 17.335C15.0341 22.3638 17.9936 23.4258 19.5933 23.4258H19.6167C20.7579 23.4202 21.3023 22.8602 21.5655 22.5914C21.6458 22.5088 21.7105 22.4486 21.7563 22.4107C22.8673 21.2929 23.4363 20.4607 23.4307 19.9275C23.4229 19.3831 22.7457 18.7395 21.8098 17.8493C21.512 17.5659 21.1885 17.2581 20.8471 16.9167C19.9625 16.0343 19.5241 16.1849 18.5603 16.524C17.2272 16.9914 15.3978 17.6273 12.5554 14.7838C9.70859 11.9392 10.3456 10.112 10.8118 8.77894C11.1487 7.81513 11.3027 7.37561 10.4169 6.48988C10.07 6.14407 9.75879 5.81611 9.4721 5.51491C8.58748 4.58457 7.9494 3.9119 7.40837 3.9041H7.39945C6.86511 3.9041 6.03516 4.47524 4.86051 5.64989C4.86386 5.64655 4.86497 5.64543 4.86609 5.64543ZM19.5944 25.0991C16.8145 25.0991 13.1901 22.8859 8.82063 18.5186C4.43438 14.1335 2.21783 10.498 2.23447 7.7125C2.2446 5.87188 3.20953 4.92926 3.57208 4.57564C3.59104 4.55222 3.65574 4.48863 3.67805 4.46632C5.27772 2.86554 6.35643 2.21854 7.42957 2.23064C8.67561 2.24754 9.56245 3.18012 10.6847 4.36146C10.9624 4.65373 11.2636 4.97165 11.5994 5.30631C13.2281 6.93498 12.764 8.26357 12.3914 9.33001C11.9854 10.4935 11.634 11.4975 13.7379 13.6014C15.844 15.7052 16.848 15.3539 18.007 14.9445C19.0745 14.5719 20.3998 14.1056 22.0307 15.7343C22.3609 16.0644 22.6743 16.3623 22.9633 16.6378C24.1502 17.7656 25.0872 18.6569 25.1031 19.9063C25.1162 20.9716 24.4692 22.0571 22.8718 23.6556L22.1646 23.1759L22.7625 23.7605C22.4089 24.123 21.4674 25.0891 19.6256 25.0991H19.5944Z" fill="white"/>
</svg>
