<svg width="97" height="97" viewBox="0 0 97 97" fill="none" xmlns="http://www.w3.org/2000/svg">
<path d="M82.6351 62.4838C81.922 61.9157 81.1107 61.4832 80.2415 61.208C81.5075 58.989 82.1769 56.4797 82.1844 53.9248C82.1844 46.6477 76.4489 35.4952 67.9846 29.7327C68.4176 28.888 68.6457 27.9532 68.6503 27.004C68.6438 25.6401 68.1619 24.3211 67.2874 23.2745L69.7908 19.0897C70.42 18.0473 70.6721 16.8203 70.5047 15.6142C70.3373 14.4082 69.7606 13.2962 68.8712 12.4646C68.0603 11.6431 66.9991 11.1148 65.8548 10.963C64.7105 10.8112 63.5482 11.0445 62.5512 11.6262L61.3325 10.1957C60.8678 9.64937 60.2992 9.20073 59.6598 8.87574C59.0204 8.55074 58.3228 8.35586 57.6076 8.30238L57.4302 8.28735L57.2529 8.30238C56.5374 8.35539 55.8396 8.55022 55.2001 8.87552C54.5606 9.20082 53.9922 9.65009 53.5279 10.1972L52.3093 11.6262C51.3125 11.0446 50.1505 10.8114 49.0065 10.9632C47.8624 11.115 46.8015 11.6432 45.9908 12.4646C45.0996 13.296 44.5216 14.4087 44.3539 15.616C44.1861 16.8232 44.4389 18.0513 45.0697 19.0942L47.0411 22.3894C46.3305 22.9521 45.7569 23.6686 45.3633 24.4851C44.9698 25.3016 44.7666 26.1967 44.7692 27.1031C44.7751 28.0237 44.9986 28.9299 45.4213 29.7477C36.9661 35.5073 31.2351 46.6507 31.2351 53.9248C31.276 57.1713 32.349 60.3205 34.299 62.9165L32.8579 63.2967C32.52 62.2399 31.8559 61.3174 30.9609 60.6617C30.066 60.0059 28.9862 59.6506 27.8768 59.6468H16.4779C15.0831 59.6468 13.7454 60.2009 12.7591 61.1872C11.7728 62.1735 11.2188 63.5112 11.2188 64.906V85.567C11.2188 86.9618 11.7728 88.2995 12.7591 89.2858C13.7454 90.272 15.0831 90.8261 16.4779 90.8261H27.8738C29.0974 90.8245 30.2821 90.3962 31.224 89.6151C32.1658 88.834 32.8058 87.7489 33.0337 86.5467C36.3207 87.6391 39.7442 88.2663 43.205 88.4099C46.7391 88.5602 50.0749 88.6263 53.1222 88.6263C60.3348 88.6263 62.171 88.0057 65.8404 86.7676L66.742 86.467C74.216 84.0072 79.379 78.3198 83.5247 73.7549C84.2349 72.9703 84.7775 72.0489 85.1192 71.0473C85.4609 70.0456 85.5945 68.9847 85.5117 67.9297C85.429 66.8746 85.1318 65.8475 84.6381 64.9113C84.1445 63.9751 83.465 63.1496 82.6412 62.4853L82.6351 62.4838ZM28.6251 85.5655C28.6251 85.7647 28.5459 85.9558 28.405 86.0967C28.2641 86.2376 28.073 86.3168 27.8738 86.3168H16.4779C16.2787 86.3168 16.0876 86.2376 15.9467 86.0967C15.8058 85.9558 15.7266 85.7647 15.7266 85.5655V64.9045C15.7266 64.7052 15.8058 64.5141 15.9467 64.3732C16.0876 64.2323 16.2787 64.1532 16.4779 64.1532H27.8738C28.073 64.1532 28.2641 64.2323 28.405 64.3732C28.5459 64.5141 28.6251 64.7052 28.6251 64.9045V85.5655ZM49.1268 15.6998C49.2368 15.5598 49.3956 15.4666 49.5714 15.4388C49.7472 15.4109 49.927 15.4505 50.0749 15.5495C50.1325 15.5864 50.1868 15.6281 50.2372 15.6742C50.5713 15.9769 50.9628 16.2094 51.3884 16.3581C51.814 16.5067 52.2651 16.5685 52.715 16.5397C53.16 16.5102 53.5944 16.3916 53.9927 16.1911C54.391 15.9905 54.7449 15.7121 55.0336 15.3722L56.9494 13.1183C56.9928 13.0302 57.06 12.956 57.1434 12.9041C57.2268 12.8522 57.323 12.8247 57.4212 12.8247C57.5194 12.8247 57.6157 12.8522 57.6991 12.9041C57.7825 12.956 57.8497 13.0302 57.893 13.1183L59.7969 15.3542C60.0871 15.6979 60.4438 15.9796 60.8454 16.1822C61.2471 16.3849 61.6856 16.5044 62.1345 16.5336C62.5835 16.5627 63.0337 16.501 63.4583 16.3521C63.8828 16.2031 64.2729 15.97 64.6052 15.6667C64.6541 15.6219 64.7069 15.5817 64.763 15.5465C64.9112 15.4477 65.0912 15.4083 65.2672 15.4362C65.4431 15.464 65.6022 15.557 65.7127 15.6968C65.8675 15.8251 65.9722 16.0039 66.0085 16.2017C66.0447 16.3995 66.0102 16.6037 65.911 16.7786L63.2965 21.1498C63.1102 21.1216 62.9226 21.1025 62.7345 21.0927H51.5159L48.9359 16.7801C48.836 16.6063 48.8003 16.4028 48.8352 16.2053C48.8701 16.0078 48.9733 15.8289 49.1268 15.6998ZM64.1424 27.1031C64.142 27.4766 63.9936 27.8346 63.7297 28.0988C63.4658 28.363 63.1079 28.5118 62.7345 28.5126H50.682C50.4899 28.5094 50.3005 28.4676 50.1249 28.3898C49.9493 28.3119 49.7911 28.1996 49.6598 28.0594C49.5285 27.9193 49.4266 27.7541 49.3604 27.5739C49.2941 27.3936 49.2647 27.2018 49.274 27.01C49.2744 26.6365 49.4229 26.2785 49.6868 26.0143C49.9507 25.7501 50.3086 25.6013 50.682 25.6005H62.7345C62.9265 25.6037 63.116 25.6455 63.2916 25.7233C63.4672 25.8012 63.6253 25.9135 63.7567 26.0537C63.888 26.1938 63.9898 26.3589 64.0561 26.5392C64.1224 26.7195 64.1517 26.9113 64.1424 27.1031ZM49.0727 32.7695C49.5947 32.928 50.1365 33.0125 50.682 33.0204H62.7345C63.28 33.0126 63.8218 32.9282 64.3438 32.7695C72.0071 37.2969 77.6765 47.5102 77.6765 53.9248C77.6361 55.4259 77.2991 56.9041 76.6848 58.2743C76.0705 59.6445 75.1911 60.8795 74.0973 61.9082L74.1078 61.9188C73.4357 62.3034 72.8274 62.79 72.3046 63.3613L71.8238 63.8962C68.787 67.2846 65.914 70.4837 62.0162 71.7835C61.3761 71.9872 60.7237 72.1498 60.0628 72.2703C60.3153 71.5949 60.4672 70.8862 60.5136 70.1666C60.6118 68.2503 59.9847 66.3672 58.7571 64.8924C58.8888 64.6032 58.9575 64.2892 58.9584 63.9713V62.2749C60.0351 61.8418 60.9766 61.1291 61.6857 60.2103C62.2738 59.4322 62.6818 58.5332 62.8801 57.5782C63.0783 56.6232 63.062 55.6361 62.8321 54.6882C62.6429 53.8944 62.2956 53.1469 61.811 52.4904C61.3264 51.8339 60.7145 51.2818 60.0117 50.867C59.1757 50.3971 58.263 50.0792 57.316 49.9279C57.0366 49.8693 56.7541 49.8137 56.4701 49.7295C55.9719 49.6189 55.5264 49.3414 55.2075 48.9429C54.8886 48.5445 54.7153 48.0491 54.7165 47.5387C54.7565 47.031 54.9834 46.5562 55.3533 46.2061C55.7232 45.856 56.2098 45.6556 56.7189 45.6437C57.2281 45.6317 57.7235 45.809 58.1095 46.1413C58.4954 46.4736 58.7444 46.9373 58.8081 47.4426C58.8425 47.7381 58.935 48.0239 59.0803 48.2834C59.2256 48.543 59.4209 48.7713 59.6549 48.955C59.8889 49.1388 60.1569 49.2744 60.4436 49.354C60.7302 49.4337 61.0298 49.4558 61.325 49.4191C61.6202 49.3824 61.9053 49.2876 62.1637 49.1402C62.4221 48.9928 62.6488 48.7958 62.8307 48.5603C63.0125 48.3249 63.146 48.0558 63.2234 47.7685C63.3007 47.4813 63.3205 47.1815 63.2814 46.8866C63.1665 45.9637 62.8568 45.0757 62.373 44.2815C61.8891 43.4873 61.242 42.8049 60.4745 42.2796C60.0046 41.9673 59.496 41.7178 58.9614 41.5373V39.97C58.9614 39.3723 58.7239 38.799 58.3012 38.3763C57.8786 37.9536 57.3053 37.7161 56.7075 37.7161C56.1097 37.7161 55.5364 37.9536 55.1137 38.3763C54.691 38.799 54.4536 39.3723 54.4536 39.97V41.5733C53.4252 41.9509 52.5093 42.5831 51.7916 43.4106C51.0738 44.2382 50.5775 45.2342 50.3491 46.3057C50.1207 47.3771 50.1675 48.4889 50.4854 49.5373C50.8032 50.5856 51.3816 51.5363 52.1666 52.3005C52.8397 52.9407 53.6259 53.4502 54.4851 53.8031C55.5688 54.0607 56.6377 54.3768 57.6872 54.7498C57.9053 54.8927 58.0909 55.08 58.2316 55.2995C58.3724 55.519 58.4653 55.7657 58.5041 56.0236C58.543 56.2814 58.527 56.5446 58.4572 56.7958C58.3873 57.0471 58.2653 57.2807 58.0989 57.4815C57.9162 57.724 57.6819 57.9228 57.4129 58.0637C57.144 58.2045 56.8471 58.2839 56.5437 58.296C56.1011 58.3064 55.6665 58.177 55.3017 57.9261C54.937 57.6752 54.6607 57.3156 54.5122 56.8985C54.3225 56.3314 53.9153 55.8629 53.3801 55.5961C52.845 55.3292 52.2258 55.2859 51.6587 55.4755C51.0916 55.6652 50.6231 56.0724 50.3562 56.6076C50.0894 57.1427 50.046 57.7619 50.2357 58.329C50.7956 59.9735 51.9842 61.3291 53.5415 62.0991C53.295 62.075 53.0531 62.0224 52.8037 62.0224C51.8297 62.0027 50.8593 61.8976 49.9036 61.7084C46.3513 61.0604 42.7108 61.0645 39.1599 61.7204C37.0438 59.6676 35.8179 56.8662 35.746 53.9188C35.74 47.5102 41.4033 37.2954 49.0727 32.7695ZM80.1844 70.7211C76.3918 74.8984 71.6705 80.0974 65.3175 82.1891L64.3979 82.4986C60.8983 83.6797 59.5895 84.1214 53.1282 84.1214C50.1425 84.1214 46.8668 84.0508 43.3928 83.9096C40.211 83.7803 37.0652 83.186 34.0555 82.1455L33.1404 81.83V67.8842L38.1967 66.5498C41.7609 65.6186 45.4862 65.4826 49.1087 66.1516C50.3267 66.388 51.5631 66.5167 52.8037 66.5363C53.2405 66.5371 53.6727 66.6268 54.0738 66.7998C54.4749 66.9729 54.8367 67.2257 55.137 67.5429C55.4374 67.8602 55.6701 68.2352 55.821 68.6451C55.9719 69.0551 56.0378 69.4915 56.0148 69.9277C55.8795 72.5227 53.265 72.96 51.1538 72.9961H51.1418C51.0666 72.9847 50.9909 72.9771 50.9149 72.9735H44.371C43.7732 72.9735 43.1999 73.211 42.7772 73.6337C42.3545 74.0564 42.1171 74.6297 42.1171 75.2275C42.1171 75.8252 42.3545 76.3985 42.7772 76.8212C43.1999 77.2439 43.7732 77.4814 44.371 77.4814H44.4521C50.6279 77.4814 57.4858 78.0178 63.4377 76.0539C68.4775 74.3755 71.8869 70.5738 75.1837 66.8984L75.6675 66.3605C76.1752 65.7712 76.8929 65.4033 77.6677 65.3351C78.4425 65.2669 79.2134 65.5038 79.8162 65.9954C80.16 66.2745 80.4434 66.6207 80.6492 67.0128C80.855 67.4049 80.9788 67.8347 81.0133 68.2762C81.0477 68.7177 80.992 69.1616 80.8495 69.5808C80.707 70.0001 80.4807 70.386 80.1844 70.7151V70.7211ZM25.1886 70.4912C25.1886 71.0856 25.0123 71.6666 24.6821 72.1608C24.3519 72.655 23.8825 73.0402 23.3334 73.2677C22.7843 73.4951 22.18 73.5546 21.5971 73.4387C21.0141 73.3227 20.4786 73.0365 20.0583 72.6162C19.638 72.1959 19.3518 71.6605 19.2359 71.0775C19.1199 70.4945 19.1794 69.8903 19.4069 69.3412C19.6343 68.792 20.0195 68.3227 20.5137 67.9924C21.0079 67.6622 21.589 67.486 22.1833 67.486C22.9791 67.488 23.7415 67.8055 24.3035 68.3688C24.8655 68.9322 25.1811 69.6955 25.1811 70.4912H25.1886Z" fill="white"/>
</svg>
