<svg width="98" height="97" viewBox="0 0 98 97" fill="none" xmlns="http://www.w3.org/2000/svg">
<path d="M70.4032 15.7672C64.9623 11.2959 58.2069 8.72938 51.1697 8.45996C46.1689 8.45996 37.9601 10.4569 32.5282 11.7777C31.1398 12.1143 29.6402 12.4795 28.6725 12.6883C28.1964 11.9518 27.5436 11.346 26.7736 10.9261C26.0036 10.5062 25.1408 10.2855 24.2638 10.2841H12.8724C11.4776 10.2841 10.1399 10.8382 9.15365 11.8245C8.16737 12.8108 7.61328 14.1485 7.61328 15.5433V36.2043C7.61328 37.5991 8.16737 38.9368 9.15365 39.9231C10.1399 40.9094 11.4776 41.4634 12.8724 41.4634H24.2668C25.4296 41.4591 26.5582 41.0695 27.4761 40.3555C28.3939 39.6416 29.0493 38.6436 29.3396 37.5176C31.3547 37.976 33.3083 38.6721 35.1593 39.5912C36.0037 39.9668 36.8452 40.3425 37.6882 40.6791C39.5142 41.5106 41.2336 42.559 42.8091 43.8015L43.894 44.5724C44.773 45.1935 45.8229 45.5268 46.8992 45.5265C47.5608 45.5319 48.2167 45.4026 48.8268 45.1466C49.4369 44.8906 49.9886 44.5133 50.4484 44.0374C51.5087 42.9445 52.2663 41.5945 52.6467 40.1201C54.5022 41.4973 56.7595 42.2252 59.07 42.1912C61.3805 42.1573 63.6155 41.3635 65.4297 39.9325C67.244 38.5014 68.5365 36.5128 69.1076 34.2737C69.6787 32.0347 69.4967 29.6699 68.5895 27.5447C69.7946 27.0859 70.8392 26.2847 71.5947 25.2397C72.5992 23.7918 73.0332 22.0237 72.8133 20.2752C72.5933 18.5267 71.735 16.9212 70.4032 15.7672ZM25.0241 36.2028C25.0241 36.402 24.945 36.5931 24.8041 36.734C24.6632 36.8749 24.4721 36.9541 24.2728 36.9541H12.8724C12.6732 36.9541 12.4821 36.8749 12.3412 36.734C12.2003 36.5931 12.1211 36.402 12.1211 36.2028V15.5328C12.1211 15.3335 12.2003 15.1424 12.3412 15.0015C12.4821 14.8606 12.6732 14.7815 12.8724 14.7815H24.2668C24.466 14.7815 24.6571 14.8606 24.798 15.0015C24.9389 15.1424 25.0181 15.3335 25.0181 15.5328L25.0241 36.2028ZM47.1832 40.927C47.0788 40.9942 46.9559 41.0266 46.832 41.0196C46.7081 41.0125 46.5896 40.9665 46.4935 40.8879L45.4282 40.1366C42.712 38.4165 39.8951 36.8609 36.9925 35.4785C34.6356 34.2985 32.1216 33.4626 29.5275 32.9962V17.1135C30.4546 16.9197 31.7348 16.6117 33.598 16.1579C38.8211 14.8867 46.7144 12.9663 51.1787 12.9663C57.1312 13.241 62.8388 15.4177 67.4625 19.1766C67.9254 19.5918 68.2301 20.1544 68.3249 20.7689C68.4197 21.3834 68.2987 22.0117 67.9824 22.547C67.8353 22.7774 67.6406 22.9738 67.4115 23.1229C67.1823 23.2721 66.924 23.3706 66.6537 23.4118C66.3834 23.4531 66.1074 23.4361 65.8442 23.3621C65.581 23.2881 65.3367 23.1588 65.1275 22.9828C64.8675 22.8235 64.5655 22.6296 64.2259 22.4148C62.5824 21.3127 60.854 20.343 59.0569 19.5147C57.2016 18.7255 55.1961 18.3517 53.1811 18.4194C51.166 18.4872 49.1902 18.9949 47.3921 19.9069C40.8978 23.0955 41.5213 27.148 42.0908 28.7423C42.9173 31.0608 46.7144 35.0277 46.7144 35.0277C48.7144 37.1705 48.8736 39.1509 47.1832 40.927ZM48.4529 30.3185C47.5527 29.4367 46.8322 28.3885 46.3312 27.2322C45.8293 25.8257 48.5326 24.3772 49.374 23.958C50.4937 23.407 51.7067 23.0707 52.9503 22.9662C51.7255 23.8055 50.6919 24.894 49.9171 26.1605C49.1423 27.427 48.6439 28.843 48.4544 30.3155L48.4529 30.3185ZM58.8916 37.6814C57.6999 37.6814 56.5349 37.328 55.544 36.6659C54.5531 36.0038 53.7808 35.0627 53.3248 33.9617C52.8687 32.8607 52.7494 31.6492 52.9819 30.4803C53.2144 29.3115 53.7883 28.2379 54.6309 27.3952C55.4736 26.5525 56.5473 25.9786 57.7161 25.7461C58.8849 25.5137 60.0964 25.633 61.1975 26.089C62.2985 26.5451 63.2395 27.3174 63.9016 28.3083C64.5637 29.2992 64.9171 30.4641 64.9171 31.6559C64.9147 33.2528 64.2793 34.7836 63.1501 35.9128C62.0209 37.042 60.49 37.6775 58.8931 37.6799L58.8916 37.6814ZM85.0371 56.6414H73.6398C72.5115 56.6458 71.4147 57.0135 70.5118 57.6902C69.6089 58.3668 68.948 59.3163 68.6271 60.3979L64.0576 59.1958C59.8579 58.0963 55.4679 57.9332 51.1982 58.718C50.2431 58.9073 49.2732 59.0124 48.2997 59.0321C47.251 59.0331 46.2134 59.2467 45.2496 59.66C44.2858 60.0732 43.4157 60.6774 42.6919 61.4362C41.9657 62.1959 41.4036 63.0969 41.0404 64.083C40.6772 65.0692 40.5207 66.1195 40.5807 67.1687C40.628 67.8852 40.7799 68.5909 41.0315 69.2634C40.3707 69.1454 39.7182 68.9848 39.0781 68.7825C35.1713 67.4813 32.3013 64.2747 29.263 60.8938L28.7897 60.3664C27.5098 58.9223 25.7241 58.025 23.8015 57.86C21.8789 57.695 19.9664 58.2749 18.4592 59.4798C17.6349 60.1437 16.9549 60.9689 16.4607 61.9049C15.9666 62.8408 15.6687 63.8678 15.5854 64.9229C15.5022 65.978 15.6352 67.039 15.9764 68.0409C16.3176 69.0428 16.8597 69.9645 17.5696 70.7495C21.7184 75.3189 26.8859 81.0048 34.3463 83.4631L35.2479 83.7636C38.9158 85.0018 40.7565 85.6224 47.9646 85.6224C51.0119 85.6224 54.3477 85.5502 57.8818 85.406C61.4849 85.2592 65.0475 84.5885 68.4573 83.415C68.6598 84.6419 69.2904 85.7573 70.2372 86.5633C71.1841 87.3692 72.3858 87.8137 73.6293 87.8177H85.0236C86.4184 87.8177 87.7561 87.2636 88.7424 86.2773C89.7287 85.291 90.2828 83.9533 90.2828 82.5585V61.899C90.2828 60.5061 89.7301 59.17 88.7461 58.184C87.7621 57.198 86.4271 56.6427 85.0341 56.6399L85.0371 56.6414ZM57.709 80.8966C54.235 81.0364 50.9608 81.1085 47.9736 81.1085C41.5123 81.1085 40.196 80.6667 36.704 79.4857L35.7753 79.1731C29.4298 77.0845 24.7101 71.8854 20.9145 67.7037C20.6187 67.3742 20.393 66.9881 20.2512 66.5688C20.1093 66.1494 20.0542 65.7056 20.0892 65.2643C20.1242 64.823 20.2486 64.3934 20.4548 64.0016C20.6609 63.6099 20.9446 63.2641 21.2886 62.9854C21.8932 62.4941 22.6658 62.2584 23.4416 62.3286C24.2175 62.3988 24.9352 62.7693 25.4418 63.3611L25.9182 63.893C29.2164 67.5684 32.6259 71.37 37.6716 73.05C41.0444 73.9441 44.5174 74.4041 48.0066 74.4189C48.211 74.4339 48.4078 74.476 48.6167 74.476H56.7308C57.3286 74.476 57.9019 74.2385 58.3246 73.8158C58.7473 73.3931 58.9848 72.8198 58.9848 72.222C58.9848 71.6243 58.7473 71.051 58.3246 70.6283C57.9019 70.2056 57.3286 69.9681 56.7308 69.9681H56.6512C56.6512 69.9681 49.06 69.9441 47.9886 69.911C47.2399 69.8107 46.5466 69.4614 46.0206 68.9193C45.4945 68.3771 45.1662 67.6737 45.0886 66.9223C45.0644 66.4849 45.1298 66.0472 45.2806 65.636C45.4314 65.2247 45.6644 64.8485 45.9655 64.5304C46.2667 64.2123 46.6295 63.9589 47.0318 63.7857C47.4342 63.6126 47.8676 63.5233 48.3057 63.5234C49.5457 63.5039 50.7816 63.3752 51.9991 63.1387C55.6222 62.47 59.3479 62.606 62.9126 63.5369L68.3866 64.9824V78.6713L67.0523 79.1326C64.0407 80.1736 60.8929 80.768 57.709 80.8966ZM85.7854 82.5495C85.7854 82.7488 85.7063 82.9399 85.5654 83.0808C85.4245 83.2217 85.2334 83.3008 85.0341 83.3008H73.6398C73.4405 83.3008 73.2494 83.2217 73.1085 83.0808C72.9676 82.9399 72.8885 82.7488 72.8885 82.5495V61.899C72.8885 61.6998 72.9676 61.5087 73.1085 61.3678C73.2494 61.2269 73.4405 61.1477 73.6398 61.1477H85.0341C85.2334 61.1477 85.4245 61.2269 85.5654 61.3678C85.7063 61.5087 85.7854 61.6998 85.7854 61.899V82.5495ZM81.5901 77.7231C81.5901 78.1689 81.458 78.6047 81.2103 78.9753C80.9626 79.346 80.6106 79.6349 80.1988 79.8055C79.7869 79.9761 79.3337 80.0207 78.8965 79.9337C78.4593 79.8468 78.0577 79.6321 77.7424 79.3169C77.4272 79.0017 77.2126 78.6001 77.1256 78.1628C77.0386 77.7256 77.0833 77.2724 77.2539 76.8606C77.4245 76.4487 77.7133 76.0967 78.084 75.849C78.4547 75.6014 78.8904 75.4692 79.3362 75.4692C79.934 75.4692 80.5073 75.7066 80.93 76.1293C81.3527 76.552 81.5901 77.1253 81.5901 77.7231ZM20.5283 20.9677C20.5283 21.4135 20.3961 21.8493 20.1484 22.22C19.9008 22.5906 19.5487 22.8795 19.1369 23.0501C18.725 23.2207 18.2719 23.2653 17.8346 23.1784C17.3974 23.0914 16.9958 22.8767 16.6806 22.5615C16.3654 22.2463 16.1507 21.8447 16.0637 21.4075C15.9768 20.9702 16.0214 20.5171 16.192 20.1052C16.3626 19.6934 16.6515 19.3413 17.0221 19.0937C17.3928 18.846 17.8286 18.7138 18.2744 18.7138C18.8721 18.7138 19.4454 18.9513 19.8681 19.374C20.2908 19.7967 20.5283 20.37 20.5283 20.9677Z" fill="white"/>
</svg>
