<svg width="138" height="156" viewBox="0 0 138 156" fill="none" xmlns="http://www.w3.org/2000/svg">
<circle cx="1" cy="1.00006" r="1" fill="white"/>
<circle cx="16" cy="1.00006" r="1" fill="white"/>
<circle cx="31" cy="1.00006" r="1" fill="white"/>
<circle cx="46" cy="1.00006" r="1" fill="white"/>
<circle cx="61" cy="1.00006" r="1" fill="white"/>
<circle cx="76" cy="1.00006" r="1" fill="white"/>
<circle cx="91" cy="1.00006" r="1" fill="white"/>
<circle cx="106" cy="1.00006" r="1" fill="white"/>
<circle cx="121" cy="1.00006" r="1" fill="white"/>
<circle cx="136" cy="1.00006" r="1" fill="white"/>
<circle cx="1" cy="15.0001" r="1" fill="white"/>
<circle cx="16" cy="15.0001" r="1" fill="white"/>
<circle cx="31" cy="15.0001" r="1" fill="white"/>
<circle cx="46" cy="15.0001" r="1" fill="white"/>
<circle cx="61" cy="15.0001" r="1" fill="white"/>
<circle cx="76" cy="15.0001" r="1" fill="white"/>
<circle cx="91" cy="15.0001" r="1" fill="white"/>
<circle cx="106" cy="15.0001" r="1" fill="white"/>
<circle cx="121" cy="15.0001" r="1" fill="white"/>
<circle cx="136" cy="15.0001" r="1" fill="white"/>
<circle cx="1" cy="29.0001" r="1" fill="white"/>
<circle cx="16" cy="29.0001" r="1" fill="white"/>
<circle cx="31" cy="29.0001" r="1" fill="white"/>
<circle cx="46" cy="29.0001" r="1" fill="white"/>
<circle cx="61" cy="29.0001" r="1" fill="white"/>
<circle cx="76" cy="29.0001" r="1" fill="white"/>
<circle cx="91" cy="29.0001" r="1" fill="white"/>
<circle cx="106" cy="29.0001" r="1" fill="white"/>
<circle cx="121" cy="29.0001" r="1" fill="white"/>
<circle cx="136" cy="29.0001" r="1" fill="white"/>
<circle cx="1" cy="43.0001" r="1" fill="white"/>
<circle cx="16" cy="43.0001" r="1" fill="white"/>
<circle cx="31" cy="43.0001" r="1" fill="white"/>
<circle cx="46" cy="43.0001" r="1" fill="white"/>
<circle cx="61" cy="43.0001" r="1" fill="white"/>
<circle cx="76" cy="43.0001" r="1" fill="white"/>
<circle cx="91" cy="43.0001" r="1" fill="white"/>
<circle cx="106" cy="43.0001" r="1" fill="white"/>
<circle cx="121" cy="43.0001" r="1" fill="white"/>
<circle cx="136" cy="43.0001" r="1" fill="white"/>
<circle cx="1" cy="57.0001" r="1" fill="white"/>
<circle cx="16" cy="57.0001" r="1" fill="white"/>
<circle cx="31" cy="57.0001" r="1" fill="white"/>
<circle cx="46" cy="57.0001" r="1" fill="white"/>
<circle cx="61" cy="57.0001" r="1" fill="white"/>
<circle cx="76" cy="57.0001" r="1" fill="white"/>
<circle cx="91" cy="57.0001" r="1" fill="white"/>
<circle cx="106" cy="57.0001" r="1" fill="white"/>
<circle cx="121" cy="57.0001" r="1" fill="white"/>
<circle cx="136" cy="57.0001" r="1" fill="white"/>
<circle cx="1" cy="71.0001" r="1" fill="white"/>
<circle cx="16" cy="71.0001" r="1" fill="white"/>
<circle cx="31" cy="71.0001" r="1" fill="white"/>
<circle cx="46" cy="71.0001" r="1" fill="white"/>
<circle cx="61" cy="71.0001" r="1" fill="white"/>
<circle cx="76" cy="71.0001" r="1" fill="white"/>
<circle cx="91" cy="71.0001" r="1" fill="white"/>
<circle cx="106" cy="71.0001" r="1" fill="white"/>
<circle cx="121" cy="71.0001" r="1" fill="white"/>
<circle cx="136" cy="71.0001" r="1" fill="white"/>
<circle cx="1" cy="85.0001" r="1" fill="white"/>
<circle cx="16" cy="85.0001" r="1" fill="white"/>
<circle cx="31" cy="85.0001" r="1" fill="white"/>
<circle cx="46" cy="85.0001" r="1" fill="white"/>
<circle cx="61" cy="85.0001" r="1" fill="white"/>
<circle cx="76" cy="85.0001" r="1" fill="white"/>
<circle cx="91" cy="85.0001" r="1" fill="white"/>
<circle cx="106" cy="85.0001" r="1" fill="white"/>
<circle cx="121" cy="85.0001" r="1" fill="white"/>
<circle cx="136" cy="85.0001" r="1" fill="white"/>
<circle cx="1" cy="99.0001" r="1" fill="white"/>
<circle cx="16" cy="99.0001" r="1" fill="white"/>
<circle cx="31" cy="99.0001" r="1" fill="white"/>
<circle cx="46" cy="99.0001" r="1" fill="white"/>
<circle cx="61" cy="99.0001" r="1" fill="white"/>
<circle cx="76" cy="99.0001" r="1" fill="white"/>
<circle cx="91" cy="99.0001" r="1" fill="white"/>
<circle cx="106" cy="99.0001" r="1" fill="white"/>
<circle cx="121" cy="99.0001" r="1" fill="white"/>
<circle cx="136" cy="99.0001" r="1" fill="white"/>
<circle cx="1" cy="113" r="1" fill="white"/>
<circle cx="16" cy="113" r="1" fill="white"/>
<circle cx="31" cy="113" r="1" fill="white"/>
<circle cx="46" cy="113" r="1" fill="white"/>
<circle cx="61" cy="113" r="1" fill="white"/>
<circle cx="76" cy="113" r="1" fill="white"/>
<circle cx="91" cy="113" r="1" fill="white"/>
<circle cx="106" cy="113" r="1" fill="white"/>
<circle cx="121" cy="113" r="1" fill="white"/>
<circle cx="136" cy="113" r="1" fill="white"/>
<circle cx="1" cy="127" r="1" fill="white"/>
<circle cx="16" cy="127" r="1" fill="white"/>
<circle cx="31" cy="127" r="1" fill="white"/>
<circle cx="46" cy="127" r="1" fill="white"/>
<circle cx="61" cy="127" r="1" fill="white"/>
<circle cx="76" cy="127" r="1" fill="white"/>
<circle cx="91" cy="127" r="1" fill="white"/>
<circle cx="106" cy="127" r="1" fill="white"/>
<circle cx="121" cy="127" r="1" fill="white"/>
<circle cx="136" cy="127" r="1" fill="white"/>
<circle cx="1" cy="141" r="1" fill="white"/>
<circle cx="16" cy="141" r="1" fill="white"/>
<circle cx="31" cy="141" r="1" fill="white"/>
<circle cx="46" cy="141" r="1" fill="white"/>
<circle cx="61" cy="141" r="1" fill="white"/>
<circle cx="76" cy="141" r="1" fill="white"/>
<circle cx="91" cy="141" r="1" fill="white"/>
<circle cx="106" cy="141" r="1" fill="white"/>
<circle cx="121" cy="141" r="1" fill="white"/>
<circle cx="136" cy="141" r="1" fill="white"/>
<circle cx="1" cy="155" r="1" fill="white"/>
<circle cx="16" cy="155" r="1" fill="white"/>
<circle cx="31" cy="155" r="1" fill="white"/>
<circle cx="46" cy="155" r="1" fill="white"/>
<circle cx="61" cy="155" r="1" fill="white"/>
<circle cx="76" cy="155" r="1" fill="white"/>
<circle cx="91" cy="155" r="1" fill="white"/>
<circle cx="106" cy="155" r="1" fill="white"/>
<circle cx="121" cy="155" r="1" fill="white"/>
<circle cx="136" cy="155" r="1" fill="white"/>
</svg>
