<svg width="27" height="28" viewBox="0 0 27 28" fill="none" xmlns="http://www.w3.org/2000/svg">
<path fill-rule="evenodd" clip-rule="evenodd" d="M13.664 2.6084C18.7386 2.6084 22.8671 6.7682 22.8671 11.8818C22.8671 18.1678 15.6653 24.3612 13.664 24.3612C11.6628 24.3612 4.46094 18.1678 4.46094 11.8818C4.46094 6.7682 8.5895 2.6084 13.664 2.6084ZM13.664 4.28169C9.51204 4.28169 6.13423 7.69185 6.13423 11.8818C6.13423 17.2129 12.4079 22.4068 13.664 22.6834C14.9201 22.4056 21.1938 17.2118 21.1938 11.8818C21.1938 7.69185 17.816 4.28169 13.664 4.28169ZM13.6651 8.18603C15.6642 8.18603 17.2906 9.81247 17.2906 11.8126C17.2906 13.8116 15.6642 15.4369 13.6651 15.4369C11.6661 15.4369 10.0397 13.8116 10.0397 11.8126C10.0397 9.81247 11.6661 8.18603 13.6651 8.18603ZM13.6651 9.85932C12.5887 9.85932 11.713 10.735 11.713 11.8126C11.713 12.8891 12.5887 13.7637 13.6651 13.7637C14.7416 13.7637 15.6173 12.8891 15.6173 11.8126C15.6173 10.735 14.7416 9.85932 13.6651 9.85932Z" fill="white"/>
</svg>
