<svg width="27" height="28" viewBox="0 0 27 28" fill="none" xmlns="http://www.w3.org/2000/svg">
<path fill-rule="evenodd" clip-rule="evenodd" d="M18.5852 2.91992C22.2999 2.91992 25.101 5.95081 25.101 9.97005V17.6315C25.101 19.6885 24.3737 21.547 23.0518 22.8655C21.866 24.0469 20.3277 24.6727 18.6031 24.6727H7.61178C5.89052 24.6727 4.35333 24.048 3.16641 22.8655C1.84451 21.547 1.11719 19.6885 1.11719 17.6315V9.97005C1.11719 5.95081 3.91827 2.91992 7.63298 2.91992H18.5852ZM18.5852 4.59321H7.63298C4.82743 4.59321 2.79048 6.85438 2.79048 9.97005V17.6315C2.79048 19.2412 3.34378 20.6791 4.34775 21.6797C5.2134 22.5443 6.34343 22.9994 7.61513 22.9994H18.5852C18.5874 22.9972 18.5964 22.9994 18.6031 22.9994C19.8759 22.9994 21.0048 22.5443 21.8704 21.6797C22.8755 20.6791 23.4277 19.2412 23.4277 17.6315V9.97005C23.4277 6.85438 21.3908 4.59321 18.5852 4.59321ZM20.3433 9.75676C20.6344 10.1148 20.5798 10.6414 20.2217 10.9336L15.2643 14.9629C14.6374 15.4604 13.8877 15.7092 13.1392 15.7092C12.3929 15.7092 11.6489 15.4627 11.0264 14.9696L6.02327 10.9359C5.66296 10.6458 5.60718 10.1182 5.8961 9.75899C6.18725 9.40091 6.71378 9.34401 7.07298 9.63294L12.0717 13.6622C12.6997 14.1597 13.5843 14.1597 14.2168 13.6578L19.1653 9.63517C19.5245 9.34178 20.051 9.39756 20.3433 9.75676Z" fill="white"/>
</svg>
