<svg width="97" height="97" viewBox="0 0 97 97" fill="none" xmlns="http://www.w3.org/2000/svg">
<path d="M31.6654 57.9593H15.1366C14.5388 57.9593 13.9655 58.1968 13.5428 58.6195C13.1201 59.0422 12.8826 59.6155 12.8826 60.2132V87.2604C12.8826 87.8581 13.1201 88.4314 13.5428 88.8541C13.9655 89.2768 14.5388 89.5143 15.1366 89.5143H31.6654C32.2631 89.5143 32.8364 89.2768 33.2591 88.8541C33.6818 88.4314 33.9193 87.8581 33.9193 87.2604V60.2132C33.9193 59.6155 33.6818 59.0422 33.2591 58.6195C32.8364 58.1968 32.2631 57.9593 31.6654 57.9593ZM29.4114 85.0064H17.3905V62.4672H29.4114V85.0064ZM56.8027 45.9384H40.2739C39.6761 45.9384 39.1028 46.1758 38.6801 46.5985C38.2574 47.0212 38.0199 47.5945 38.0199 48.1923V87.2604C38.0199 87.8581 38.2574 88.4314 38.6801 88.8541C39.1028 89.2768 39.6761 89.5143 40.2739 89.5143H56.8027C57.4004 89.5143 57.9737 89.2768 58.3964 88.8541C58.8191 88.4314 59.0566 87.8581 59.0566 87.2604V48.1923C59.0566 47.5945 58.8191 47.0212 58.3964 46.5985C57.9737 46.1758 57.4004 45.9384 56.8027 45.9384ZM54.5487 85.0064H42.5278V50.4462H54.5487V85.0064ZM81.9399 33.9174H65.4112C64.8134 33.9174 64.2401 34.1549 63.8174 34.5776C63.3947 35.0003 63.1572 35.5736 63.1572 36.1714V87.2604C63.1572 87.8581 63.3947 88.4314 63.8174 88.8541C64.2401 89.2768 64.8134 89.5143 65.4112 89.5143H81.9399C82.5377 89.5143 83.111 89.2768 83.5337 88.8541C83.9564 88.4314 84.1939 87.8581 84.1939 87.2604V36.1714C84.1939 35.5736 83.9564 35.0003 83.5337 34.5776C83.111 34.1549 82.5377 33.9174 81.9399 33.9174ZM79.686 85.0064H67.6651V38.4253H79.686V85.0064ZM20.2395 42.1292C20.4382 42.3486 20.5918 42.6051 20.6914 42.8838C20.791 43.1626 20.8348 43.4583 20.8201 43.7539C20.8055 44.0496 20.7327 44.3395 20.606 44.6071C20.4793 44.8746 20.3011 45.1146 20.0817 45.3133L14.9893 49.9143C14.7698 50.1129 14.5133 50.2663 14.2345 50.3658C13.9557 50.4653 13.66 50.5089 13.3643 50.4941C13.0686 50.4793 12.7788 50.4064 12.5113 50.2796C12.2438 50.1528 12.0039 49.9745 11.8053 49.755C11.6067 49.5355 11.4532 49.279 11.3538 49.0002C11.2543 48.7214 11.2107 48.4257 11.2255 48.13C11.2403 47.8343 11.3131 47.5445 11.44 47.277C11.5668 47.0095 11.745 46.7696 11.9645 46.571L17.0554 41.9639C17.2753 41.7657 17.5321 41.6126 17.8111 41.5136C18.0902 41.4146 18.386 41.3716 18.6817 41.3869C18.9774 41.4023 19.2671 41.4757 19.5344 41.6031C19.8017 41.7305 20.0413 41.9092 20.2395 42.1292ZM77.3269 11.4758C77.3231 11.3963 77.315 11.3171 77.3029 11.2384C77.2908 11.1678 77.2773 11.0987 77.2593 11.0311C77.2413 10.9634 77.2187 10.8883 77.1932 10.8192C77.1676 10.7492 77.1385 10.6804 77.106 10.6133C77.076 10.5502 77.0429 10.4886 77.0053 10.4285C76.9633 10.36 76.9177 10.2938 76.8686 10.2302C76.8446 10.1986 76.828 10.164 76.8025 10.134C76.777 10.1039 76.7589 10.0949 76.7394 10.0724C76.6857 10.0149 76.629 9.9602 76.5696 9.9086C76.5155 9.86052 76.4629 9.81394 76.4043 9.77337C76.3457 9.7328 76.2841 9.69373 76.2225 9.65767C76.1592 9.61933 76.094 9.58423 76.0271 9.55248C75.9625 9.52243 75.8949 9.49989 75.8273 9.47585C75.7597 9.45181 75.6876 9.42777 75.6154 9.40973C75.5433 9.3917 75.4757 9.38269 75.4051 9.37217C75.3289 9.36023 75.2522 9.3522 75.1752 9.34813C75.1436 9.34813 75.1151 9.33911 75.0835 9.33911H64.0648C63.467 9.33911 62.8937 9.57658 62.471 9.99927C62.0483 10.422 61.8109 10.9953 61.8109 11.593C61.8109 12.1908 62.0483 12.7641 62.471 13.1868C62.8937 13.6095 63.467 13.847 64.0648 13.847H68.9453L42.7036 36.1188L35.1049 28.52C34.696 28.1111 34.1456 27.8749 33.5675 27.8603C32.9894 27.8458 32.4278 28.054 31.9989 28.4419L22.6557 36.8986C22.2123 37.2999 21.9465 37.8609 21.9168 38.4582C21.8871 39.0555 22.0958 39.6401 22.4971 40.0834C22.8985 40.5268 23.4594 40.7925 24.0567 40.8223C24.654 40.852 25.2386 40.6433 25.6819 40.2419L33.4354 33.2232L40.9861 40.7739C41.3865 41.1712 41.9213 41.404 42.4849 41.4262C43.0485 41.4485 43.6 41.2586 44.0304 40.8941L72.8311 16.4555V22.3277C72.8311 22.9255 73.0685 23.4988 73.4912 23.9215C73.9139 24.3442 74.4872 24.5817 75.085 24.5817C75.6828 24.5817 76.2561 24.3442 76.6788 23.9215C77.1015 23.4988 77.3389 22.9255 77.3389 22.3277V11.5855C77.3389 11.545 77.3284 11.5074 77.3269 11.4758Z" fill="white"/>
</svg>
