<svg width="97" height="97" viewBox="0 0 97 97" fill="none" xmlns="http://www.w3.org/2000/svg">
<path d="M85.5874 62.2265H71.6386V11.5447C71.6386 10.9469 71.4011 10.3736 70.9784 9.95093C70.5558 9.52824 69.9825 9.29077 69.3847 9.29077H11.9922C11.3944 9.29077 10.8211 9.52824 10.3984 9.95093C9.97575 10.3736 9.73828 10.9469 9.73828 11.5447V70.2429C9.75047 74.4774 11.3615 78.551 14.2488 81.6484C17.1361 84.7458 21.0867 86.6385 25.3099 86.9475C25.7006 86.9686 26.0928 86.9881 26.4819 86.9881H67.1743C70.1965 87.0133 73.1907 86.4083 75.9659 85.2117C78.7412 84.0152 81.2366 82.2533 83.2929 80.0385C85.1342 78.0833 86.435 75.6826 87.0675 73.0724C87.6657 70.2492 87.926 67.365 87.8428 64.4804C87.8428 64.1843 87.7845 63.8911 87.6711 63.6175C87.5578 63.344 87.3916 63.0954 87.1821 62.8861C86.9727 62.6768 86.724 62.5108 86.4504 62.3976C86.1768 62.2844 85.8835 62.2263 85.5874 62.2265ZM26.4819 82.4803C26.1739 82.4803 25.8644 82.4637 25.5924 82.4487C22.5117 82.2167 19.632 80.8309 17.5286 78.5682C15.4251 76.3054 14.2529 73.3323 14.2461 70.2429V13.7986H67.1383V62.2265H40.9552C40.3574 62.2265 39.7841 62.4639 39.3614 62.8866C38.9387 63.3093 38.7012 63.8826 38.7012 64.4804V70.2429C38.7 73.485 37.4129 76.5942 35.1221 78.8883C32.8313 81.1825 29.724 82.4743 26.4819 82.4803ZM82.6889 72.0055C82.2342 73.8837 81.2918 75.6087 79.9571 77.0062C78.3239 78.7566 76.3438 80.1473 74.1432 81.0898C71.9426 82.0323 69.5697 82.5059 67.1758 82.4803H37.8883C39.5683 80.9154 40.9077 79.0212 41.8232 76.9157C42.7386 74.8103 43.2104 72.5388 43.2091 70.2429V66.7343H83.3079C83.2846 68.5081 83.0772 70.2746 82.6889 72.0055ZM39.5292 23.3207C39.5292 22.7229 39.7666 22.1496 40.1893 21.7269C40.612 21.3042 41.1853 21.0668 41.7831 21.0668H59.3247C59.9224 21.0668 60.4957 21.3042 60.9184 21.7269C61.3411 22.1496 61.5786 22.7229 61.5786 23.3207C61.5786 23.9185 61.3411 24.4918 60.9184 24.9145C60.4957 25.3372 59.9224 25.5746 59.3247 25.5746H41.7831C41.1866 25.5746 40.6145 25.3382 40.192 24.9171C39.7695 24.4961 39.5312 23.9247 39.5292 23.3282V23.3207ZM61.5786 38.7977C61.5786 39.3954 61.3411 39.9687 60.9184 40.3914C60.4957 40.8141 59.9224 41.0516 59.3247 41.0516H43.445C42.8472 41.0516 42.2739 40.8141 41.8512 40.3914C41.4285 39.9687 41.1911 39.3954 41.1911 38.7977C41.1911 38.1999 41.4285 37.6266 41.8512 37.2039C42.2739 36.7812 42.8472 36.5437 43.445 36.5437H59.3247C59.6209 36.5437 59.9142 36.6021 60.1879 36.7156C60.4615 36.8291 60.7102 36.9953 60.9195 37.205C61.1288 37.4146 61.2948 37.6634 61.4079 37.9372C61.521 38.211 61.579 38.5044 61.5786 38.8007V38.7977ZM59.3247 56.5285H27.5668C26.9691 56.5285 26.3958 56.2911 25.9731 55.8684C25.5504 55.4457 25.3129 54.8724 25.3129 54.2746C25.3129 53.6768 25.5504 53.1035 25.9731 52.6809C26.3958 52.2582 26.9691 52.0207 27.5668 52.0207H59.3247C59.9224 52.0207 60.4957 52.2582 60.9184 52.6809C61.3411 53.1035 61.5786 53.6768 61.5786 54.2746C61.5786 54.8724 61.3411 55.4457 60.9184 55.8684C60.4957 56.2911 59.9224 56.5285 59.3247 56.5285ZM33.9064 36.1996C34.1429 37.1757 34.1597 38.1921 33.9555 39.1754C33.7512 40.1588 33.331 41.0844 32.7253 41.8855C31.982 42.8489 30.9903 43.5917 29.8568 44.0343V45.8855C29.8568 46.4833 29.6194 47.0566 29.1967 47.4793C28.774 47.902 28.2007 48.1394 27.6029 48.1394C27.0051 48.1394 26.4318 47.902 26.0091 47.4793C25.5864 47.0566 25.349 46.4833 25.349 45.8855V44.2477C24.3267 43.9304 23.3939 43.3758 22.6269 42.6292C21.8599 41.8825 21.2804 40.9651 20.9358 39.9517C20.7461 39.3846 20.7894 38.7654 21.0563 38.2302C21.3232 37.6951 21.7917 37.2879 22.3588 37.0982C22.9259 36.9085 23.5451 36.9519 24.0802 37.2187C24.6153 37.4856 25.0225 37.9541 25.2122 38.5212C25.3734 38.9779 25.6752 39.3718 26.0742 39.6464C26.4732 39.921 26.9489 40.062 27.4331 40.0493C27.7683 40.0352 28.0961 39.9464 28.3926 39.7894C28.6891 39.6325 28.9468 39.4113 29.1469 39.142C29.347 38.8728 29.4845 38.5623 29.5494 38.2331C29.6142 37.904 29.6048 37.5645 29.5217 37.2395C29.4282 36.9248 29.2565 36.6389 29.0227 36.4084C28.7888 36.178 28.5005 36.0105 28.1844 35.9217C27.4947 35.6707 26.7479 35.6211 26.0447 35.4108C24.5207 35.0134 23.1799 34.1036 22.2476 32.8342C21.3154 31.5648 20.8484 30.0132 20.9253 28.4401C21.0137 27.1352 21.4786 25.884 22.2638 24.838C23.049 23.792 24.1207 22.9961 25.349 22.5469V20.7918C25.349 20.194 25.5864 19.6207 26.0091 19.198C26.4318 18.7753 27.0051 18.5379 27.6029 18.5379C28.2007 18.5379 28.774 18.7753 29.1967 19.198C29.6194 19.6207 29.8568 20.194 29.8568 20.7918V22.5063C30.4312 22.6932 30.9776 22.957 31.4812 23.2907C32.2708 23.8329 32.9362 24.5368 33.4333 25.3557C33.9305 26.1745 34.2479 27.0896 34.3647 28.0404C34.4049 28.336 34.3861 28.6366 34.3094 28.9248C34.2326 29.213 34.0994 29.4832 33.9174 29.7195C33.7355 29.9559 33.5084 30.1538 33.2494 30.3017C32.9904 30.4497 32.7046 30.5448 32.4086 30.5815C32.1126 30.6181 31.8123 30.5957 31.525 30.5155C31.2377 30.4352 30.9692 30.2987 30.7351 30.114C30.5009 29.9292 30.3058 29.6998 30.161 29.439C30.0161 29.1782 29.9245 28.8913 29.8914 28.5949C29.813 28.049 29.5371 27.5508 29.1161 27.1946C28.695 26.8384 28.158 26.6489 27.6066 26.6621C27.0553 26.6752 26.5279 26.8901 26.1243 27.2659C25.7207 27.6418 25.4689 28.1526 25.4166 28.7016C25.4131 29.2581 25.6004 29.7989 25.9474 30.234C26.2944 30.669 26.7801 30.972 27.3234 31.0922C27.6239 31.1824 27.9245 31.2425 28.2175 31.3011C29.1953 31.4573 30.1379 31.7849 31.0018 32.2688C31.7253 32.6951 32.3555 33.2629 32.8545 33.9383C33.3536 34.6137 33.7113 35.3828 33.9064 36.1996Z" fill="white"/>
</svg>
